# AST/ASF file generated using VICON BodyLanguage
# -----------------------------------------------
:version 1.10
:name VICON
:units
  mass 1.0
  length 0.45
  angle deg
:documentation
   .ast/.asf automatically generated from VICON data using
   VICON BodyBuilder and BodyLanguage model FoxedUp or BRILLIANT.MOD
:root
   order TX TY TZ RX RY RZ
   axis XYZ
   position 0 0 0  
   orientation 0 0 0 
:bonedata
  begin
     id 1 
     name lhipjoint
     direction 0.521689 -0.742065 0.420928 
     length 2.47002 
     axis 0 0 0  XYZ
  end
  begin
     id 2 
     name lfemur
     direction 0.34202 -0.939693 0  
     length 7.24654  
     axis 0 0 20  XYZ
    dof rx ry rz
    limits (-160.0 20.0)
           (-70.0 70.0)
           (-60.0 70.0)
  end
  begin
     id 3 
     name ltibia
     direction 0.34202 -0.939693 0   
     length 8.04849   
     axis 0 0 20   XYZ
    dof rx
    limits (-10.0 170.0)
  end
  begin
     id 4 
     name lfoot
     direction 0.0745411 -0.2048 0.975961   
     length 1.72367   
     axis -90 7.62852e-016 20   XYZ
    dof rx rz
    limits (-45.0 90.0)
           (-70.0 20.0)
  end
  begin
     id 5 
     name ltoes
     direction 1.53556e-011 -4.21901e-011 1   
     length 0.87311   
     axis -90 7.62852e-016 20   XYZ
    dof rx
    limits (-90.0 20.0)
  end
  begin
     id 6 
     name rhipjoint
     direction -0.52849 -0.738415 0.418857   
     length 2.48223  
     axis 0 0 0  XYZ 
  end
  begin
     id 7 
     name rfemur
     direction -0.34202 -0.939693 0   
     length 7.15571   
     axis 0 0 -20   XYZ
    dof rx ry rz
    limits (-160.0 20.0)
           (-70.0 70.0)
           (-70.0 60.0)
  end
  begin
     id 8 
     name rtibia
     direction -0.34202 -0.939693 0   
     length 7.81659   
     axis 0 0 -20   XYZ
    dof rx
    limits (-10.0 170.0)
 end
 begin
     id 9 
     name rfoot
     direction -0.0917348 -0.252039 0.963359   
     length 1.84382  
     axis -90 -7.62852e-016 -20   XYZ
    dof rx rz
    limits (-45.0 90.0)
           (-20.0 70.0)
  end
  begin
     id 10 
     name rtoes
     direction -1.53551e-011 -4.21879e-011 1   
     length 0.927771   
     axis -90 -7.62852e-016 -20   XYZ
    dof rx
    limits (-90.0 20.0)
  end
  begin
     id 11 
     name lowerback
     direction 0.00583058 0.999822 0.0179296   
     length 2.1429   
     axis 0 0 0   XYZ
    dof rx ry rz
    limits (-20.0 45.0)
           (-30.0 30.0)
           (-30.0 30.0)
  end
  begin
     id 12 
     name upperback
     direction -0.0137999 0.999752 -0.0175071   
     length 2.14252   
     axis 0 0 0   XYZ
    dof rx ry rz
    limits (-20.0 45.0)
           (-30.0 30.0)
           (-30.0 30.0)
  end
  begin
     id 13 
     name thorax
     direction -0.0158036 0.99955 -0.0254909   
     length 2.1383   
     axis 0 0 0   XYZ
    dof rx ry rz
    limits (-20.0 45.0)
           (-30.0 30.0)
           (-30.0 30.0)
  end
  begin
     id 14 
     name lowerneck
     direction -0.0101179 0.999403 -0.0330262   
     length 1.65808   
     axis 0 0 0   XYZ
    dof rx ry rz
    limits (-20.0 45.0)
           (-30.0 30.0)
           (-30.0 30.0)
  end
  begin
     id 15 
     name upperneck
     direction 0.0497734 0.995978 -0.074501   
     length 1.5897   
     axis 0 0 0   XYZ
    dof rx ry rz
    limits (-20.0 45.0)
           (-30.0 30.0)
           (-30.0 30.0)
  end
  begin
     id 16
     name head
     direction 0.0189524 0.999519 -0.0245438  
     length 1.74024  
     axis 0 0 0   XYZ
    dof rx ry rz
    limits (-20.0 45.0)
           (-30.0 30.0)
           (-30.0 30.0)
  end
  begin
     id 17 
     name lclavicle
     direction 0.945604 0.324422 0.0241537  
     length 3.59089  
     axis 0 0 0   XYZ
    dof ry rz
    limits (-20.0 10.0)
           (0.0 20.0)
  end
  begin
     id 18 
     name lhumerus
     direction 1 -4.48964e-011 -2.63524e-027   
     length 5.2391   
     axis 180 -30 -90   XYZ
    dof rx ry rz
    limits (-60.0 90.0)
           (-90.0 90.0)
           (-90.0 90.0)
  end
  begin
     id 19
     name lradius
     direction 1 -4.48969e-011 3.86978e-028   
     length 3.31467   
     axis 180 -30 -90   XYZ
    dof rx
    limits (-10.0 170.0)
  end
  begin
     id 20
     name lwrist
     direction 1 -4.48963e-011 7.20928e-028   
     length 1.65734   
     axis -5.52449e-016 90 90   XYZ
    dof ry
    limits (-180.0 0.0)
 end
  begin
     id 21 
     name lhand
     direction 1 -4.48964e-011 1.44186e-027   
     length 0.9659   
     axis -9.20027e-016 90 90   XYZ
    dof rx rz
    limits (-90.0 90.0)
           (-45.0 45.0)
  end
  begin
     id 22 
     name lfingers
     direction 1 -4.48965e-011 2.88371e-027   
     length 0.778733   
     axis -1.84005e-015 90 90   XYZ
    dof rx
    limits (0.0 90.0)
  end
  begin
     id 23
     name lthumb
     direction 0.707107 -6.34931e-011 0.707107   
     length 1.11811   
     axis -90 45 2.85299e-015   XYZ
    dof rx rz
    limits (-45.0 45.0)
           (-45.0 45.0)
  end
  begin
     id 24 
     name rclavicle
     direction -0.923762 0.370785 0.0958234   
     length 3.54196  
     axis 0 0 0   XYZ 
    dof ry rz
    limits (-10.0 20.0)
           (-20.0 0.0)
  end
  begin
     id 25 
     name rhumerus
     direction -1 -4.48966e-011 1.18702e-017  
     length 5.30252   
     axis 180 30 90   XYZ
    dof rx ry rz
    limits (-90.0 60.0)
           (-90.0 90.0)
           (-90.0 90.0)
  end
  begin
     id 26 
     name rradius
     direction -1 -4.48966e-011 4.46736e-027   
     length 3.67875   
     axis 180 30 90   XYZ
    dof rx
    limits (-10.0 170.0)
  end
  begin
     id 27 
     name rwrist
     direction -1 -4.48966e-011 7.20928e-028   
     length 1.83937   
     axis -5.52449e-016 -90 -90   XYZ
    dof ry
    limits (-180.0 0.0)
  end
  begin
     id 28
     name rhand
     direction -1 -4.48973e-011 1.44186e-027   
     length 0.594811   
     axis -9.20027e-016 -90 -90   XYZ
    dof rx rz
    limits (-90.0 90.0)
           (-45.0 45.0)
  end
  begin
     id 29
     name rfingers
     direction -1 -4.48963e-011 2.88371e-027   
     length 0.479552   
     axis -1.84005e-015 -90 -90   XYZ
    dof rx
    limits (0.0 90.0)
  end
  begin
     id 30
     name rthumb
     direction -0.707107 -6.34932e-011 0.707107   
     length 0.688544   
     axis -90 -45 -2.85299e-015   XYZ
    dof rx rz
    limits (-45.0 45.0)
           (-45.0 45.0)
  end
:hierarchy
  begin
    root lhipjoint rhipjoint lowerback
    lhipjoint lfemur
    lfemur ltibia
    ltibia lfoot
    lfoot ltoes
    rhipjoint rfemur
    rfemur rtibia
    rtibia rfoot
    rfoot rtoes
    lowerback upperback
    upperback thorax
    thorax lowerneck lclavicle rclavicle
    lowerneck upperneck
    upperneck head
    lclavicle lhumerus
    lhumerus lradius
    lradius lwrist
    lwrist lhand lthumb
    lhand lfingers
    rclavicle rhumerus
    rhumerus rradius
    rradius rwrist
    rwrist rhand rthumb
    rhand rfingers
  end

#!OML:ASF E:\acrobat2\Project_11_07_03\Capture day 1\Session 1\Acrobat.ASF
:FULLY-SPECIFIED
:DEGREES
415
root 9.28511 15.8341 -22.1215 433.609 -6.40204 -391.037
lowerback 11.167 -2.06466 -7.40592
upperback 0.759229 -4.32952 -9.8596
thorax -5.74441 -2.07557 -5.64871
lowerneck -1.9261 3.23593 5.23203
upperneck -22.8974 3.52289 -6.0933
head -6.39977 1.80764 -3.02573
rclavicle -2.54444e-014 -2.0276e-014
rhumerus 72.1153 -45.4867 -40.2323
rradius 37.5342
rwrist -17.8792
rhand -25.0795 -46.4535
rfingers 7.12502
rthumb 1.43483 -76.4285
lclavicle -2.54444e-014 -2.0276e-014
lhumerus 83.8112 36.1304 75.724
lradius 10.0703
lwrist -16.2035
lhand -42.6302 -4.79138
lfingers 7.12502
lthumb -15.5022 24.6071
rfemur -20.3362 -10.1201 32.0566
rtibia 7.60547
rfoot 33.5493 -23.1278
rtoes 22.355
lfemur -96.1692 25.3771 -7.02213
ltibia 71.9501
lfoot -31.4849 -11.4324
ltoes 43.6385
416
root 9.30529 15.8384 -21.8046 434.927 -5.3019 -391.554
lowerback 11.1841 -2.09409 -7.5746
upperback 0.867299 -4.3674 -9.81502
thorax -5.62289 -2.08733 -5.49837
lowerneck -1.69181 3.37442 6.04138
upperneck -24.0173 3.56142 -6.9811
head -6.75742 1.83556 -3.49331
rclavicle -2.22639e-014 1.47101e-014
rhumerus 74.1676 -44.5227 -41.9624
rradius 37.4025
rwrist -16.8625
rhand -25.423 -46.079
rfingers 7.12502
rthumb 1.10305 -76.0559
lclavicle -2.22639e-014 1.47101e-014
lhumerus 86.233 34.7483 80.1627
lradius 11.1638
lwrist -16.844
lhand -42.3954 -4.75036
lfingers 7.12502
lthumb -15.2761 24.6655
rfemur -19.3339 -8.63397 30.6933
rtibia 7.48128
rfoot 30.4887 -23.9824
rtoes 23.2203
lfemur -96.0308 26.0218 -6.60408
ltibia 70.8722
lfoot -30.9344 -11.9752
ltoes 44.1773
417
root 9.3317 15.8466 -21.4688 435.795 -4.36482 -392.114
lowerback 11.7103 -2.04332 -7.96711
upperback 1.03816 -4.39105 -9.75907
thorax -5.70273 -2.08163 -5.19936
lowerneck -1.77395 3.12617 5.80869
upperneck -24.4429 3.18895 -6.88083
head -6.91559 1.66449 -3.41752
rclavicle -9.85972e-014 1.82882e-014
rhumerus 76.2913 -43.4242 -43.4965
rradius 36.9856
rwrist -15.6727
rhand -25.8576 -45.9984
rfingers 7.12502
rthumb 0.683271 -75.977
lclavicle -9.85972e-014 1.82882e-014
lhumerus 86.6143 33.4894 81.1164
lradius 11.8821
lwrist -15.3337
lhand -42.5162 -4.21809
lfingers 7.12502
lthumb -15.3924 25.1889
rfemur -17.5271 -6.81276 28.9255
rtibia 7.21531
rfoot 27.9524 -25.7272
rtoes 25.0628
lfemur -95.2126 26.5592 -6.00045
ltibia 69.88
lfoot -30.368 -12.3863
ltoes 44.5082
418
root 9.35808 15.8492 -21.1243 436.583 -3.43381 -392.77
lowerback 12.1644 -1.83371 -8.23468
upperback 1.01825 -4.21973 -9.76457
thorax -5.95584 -1.98418 -5.07448
lowerneck -1.00577 2.80168 5.88733
upperneck -24.9168 2.69708 -7.13353
head -7.23029 1.44622 -3.52337
rclavicle 3.18055e-014 -1.19271e-014
rhumerus 76.9489 -42.2281 -43.7248
rradius 36.7422
rwrist -14.8501
rhand -26.4727 -46.3295
rfingers 7.12502
rthumb 0.0891852 -76.3092
lclavicle 3.18055e-014 -1.19271e-014
lhumerus 85.9154 31.7499 80.9288
lradius 12.4833
lwrist -12.9317
lhand -42.7575 -4.03126
lfingers 7.12502
lthumb -15.6248 25.3577
rfemur -15.5449 -5.2455 27.2448
rtibia 7.12237
rfoot 26.7046 -26.8624
rtoes 25.4491
lfemur -94.1689 27.1601 -5.15302
ltibia 68.9296
lfoot -29.3584 -14.0314
ltoes 47.3795
419
root 9.38034 15.8403 -20.7739 437.586 -2.54594 -393.636
lowerback 11.9077 -1.69824 -8.35125
upperback 1.11375 -4.01642 -9.89567
thorax -5.70454 -1.8903 -5.19374
lowerneck -0.313037 2.57173 6.20223
upperneck -25.4915 2.32476 -7.47818
head -7.55663 1.27502 -3.70694
rclavicle 6.99722e-014 -3.81667e-014
rhumerus 77.4442 -41.0295 -43.935
rradius 36.7073
rwrist -14.2982
rhand -27.094 -46.6292
rfingers 7.12502
rthumb -0.510916 -76.6083
lclavicle 6.99722e-014 -3.81667e-014
lhumerus 85.5736 30.1145 80.6631
lradius 12.9611
lwrist -10.2276
lhand -43.0928 -4.1152
lfingers 7.12502
lthumb -15.9478 25.2483
rfemur -13.8535 -4.10226 25.6942
rtibia 7.42452
rfoot 25.9977 -27.5134
rtoes 20.4744
lfemur -93.2533 28.0078 -4.28472
ltibia 68.0501
lfoot -28.9042 -14.8386
ltoes 48.7049
420
root 9.40059 15.8243 -20.4239 438.698 -1.36658 -394.779
lowerback 11.6191 -1.627 -8.14604
upperback 1.05526 -3.86603 -9.93263
thorax -5.61602 -1.82572 -5.38012
lowerneck -0.943648 2.41865 5.62503
upperneck -24.9943 2.09436 -7.26419
head -7.3094 1.1918 -3.49631
rclavicle -6.36111e-015 7.31528e-014
rhumerus 78.2228 -39.4879 -44.5727
rradius 36.5791
rwrist -13.8548
rhand -27.3462 -46.4514
rfingers 7.12502
rthumb -0.75449 -76.4298
lclavicle -6.36111e-015 7.31528e-014
lhumerus 84.1416 28.8168 78.9528
lradius 13.917
lwrist -6.46972
lhand -43.3386 -4.34327
lfingers 7.12502
lthumb -16.1844 25.0011
rfemur -12.2913 -3.17705 24.5782
rtibia 7.94906
rfoot 25.0919 -28.9821
rtoes 21.8531
lfemur -92.4704 29.1814 -3.18248
ltibia 67.2846
lfoot -29.0133 -14.566
ltoes 48.2861
421
root 9.42081 15.8067 -20.0793 439.789 0.153946 -396.062
lowerback 11.1474 -1.58192 -7.62521
upperback 1.06439 -3.66394 -9.82974
thorax -5.35588 -1.74476 -5.59889
lowerneck -1.85296 2.32828 5.05291
upperneck -24.4868 1.8982 -7.29313
head -7.00298 1.14063 -3.36757
rclavicle 9.54166e-015 -3.02153e-014
rhumerus 79.2076 -38.0084 -45.2868
rradius 36.4659
rwrist -14.0498
rhand -27.3101 -46.2414
rfingers 7.12502
rthumb -0.719593 -76.2199
lclavicle 9.54166e-015 -3.02153e-014
lhumerus 83.2413 27.6766 77.9859
lradius 14.5921
lwrist -3.04614
lhand -43.2492 -5.75556
lfingers 7.12502
lthumb -16.0984 23.5958
rfemur -10.7306 -2.37156 23.8815
rtibia 8.69305
rfoot 24.1617 -30.033
rtoes 23.7526
lfemur -91.6361 30.5301 -1.68401
ltibia 66.4972
lfoot -29.4101 -13.6919
ltoes 46.8247
422
root 9.43859 15.7875 -19.7338 440.86 1.62077 -397.405
lowerback 10.5214 -1.54032 -7.03595
upperback 1.02269 -3.46305 -9.86422
thorax -5.07488 -1.66786 -6.0099
lowerneck -2.63094 2.12602 3.86673
upperneck -24.1894 1.63086 -6.81988
head -6.81263 1.07024 -2.97651
rclavicle -3.18055e-014 0
rhumerus 79.837 -36.4671 -45.6415
rradius 36.4132
rwrist -14.4554
rhand -27.4075 -46.2762
rfingers 7.12502
rthumb -0.813666 -76.2544
lclavicle -3.18055e-014 0
lhumerus 81.6629 26.5645 75.8586
lradius 15.5979
lwrist 1.31002
lhand -43.0446 -7.12906
lfingers 7.12502
lthumb -15.9013 22.2381
rfemur -8.92865 -2.21335 22.9997
rtibia 8.97927
rfoot 24.6557 -29.1743
rtoes 23.9758
lfemur -90.6138 31.9207 -0.0718257
ltibia 65.6131
lfoot -29.8531 -12.9145
ltoes 45.4564
423
root 9.45396 15.7714 -19.3856 441.961 2.92072 -398.768
lowerback 9.83464 -1.3818 -6.73149
upperback 0.866867 -3.16178 -9.97526
thorax -4.86054 -1.53482 -6.36019
lowerneck -1.94676 1.86837 4.69205
upperneck -24.8726 1.23009 -7.06858
head -7.16667 0.833016 -3.20989
rclavicle -9.22361e-014 -1.63799e-013
rhumerus 79.6678 -35.201 -44.9875
rradius 36.4176
rwrist -15.0688
rhand -27.5659 -46.3052
rfingers 7.12502
rthumb -0.966677 -76.2827
lclavicle -9.22361e-014 -1.63799e-013
lhumerus 78.8426 25.278 71.7549
lradius 17.3597
lwrist 7.22473
lhand -43.0172 -6.9701
lfingers 7.12502
lthumb -15.8749 22.3992
rfemur -7.13006 -1.84335 21.832
rtibia 9.14482
rfoot 25.304 -28.9537
rtoes 24.8594
lfemur -89.3949 33.3011 1.52723
ltibia 64.5308
lfoot -29.989 -12.9307
ltoes 45.7667
424
root 9.46677 15.7677 -19.0363 443 4.22521 -400.121
lowerback 9.27781 -1.18748 -6.73444
upperback 0.680922 -2.85985 -9.97736
thorax -4.72509 -1.39019 -6.41131
lowerneck -2.17776 1.62917 4.56984
upperneck -25.0076 0.804393 -7.29659
head -7.19606 0.656185 -3.24533
rclavicle -6.36111e-015 -1.35174e-013
rhumerus 79.4512 -34.087 -44.125
rradius 36.4419
rwrist -15.5658
rhand -27.5587 -46.1502
rfingers 7.12502
rthumb -0.959741 -76.1278
lclavicle -6.36111e-015 -1.35174e-013
lhumerus 76.8005 23.9934 68.979
lradius 18.6727
lwrist 11.9149
lhand -43.2359 -7.86305
lfingers 7.12502
lthumb -16.0855 21.4893
rfemur -5.30902 -1.61881 20.5911
rtibia 9.3505
rfoot 26.1877 -29.2942
rtoes 26.399
lfemur -87.7061 34.6193 3.40213
ltibia 62.9618
lfoot -29.9775 -12.8945
ltoes 45.9411
425
root 9.47578 15.7755 -18.6834 443.983 5.76239 -401.486
lowerback 8.7411 -1.08386 -6.64583
upperback 0.524882 -2.65899 -9.90191
thorax -4.57428 -1.29482 -6.41137
lowerneck -2.49399 1.47442 4.81445
upperneck -25.0264 0.589111 -7.22249
head -7.16112 0.518803 -3.24997
rclavicle -3.81667e-014 8.42847e-014
rhumerus 79.6879 -32.9499 -43.7852
rradius 36.3497
rwrist -15.2876
rhand -27.5712 -45.7587
rfingers 7.12502
rthumb -0.971797 -75.7363
lclavicle -3.81667e-014 8.42847e-014
lhumerus 75.6192 22.9821 67.4172
lradius 19.3235
lwrist 14.8438
lhand -44.0993 -13.2836
lfingers 7.12502
lthumb -16.9168 15.9996
rfemur -3.46537 -1.39812 19.5688
rtibia 9.51805
rfoot 26.7017 -30.9917
rtoes 32.5746
lfemur -85.5971 35.8963 5.74862
ltibia 60.9864
lfoot -30.2611 -11.7147
ltoes 43.5185
426
root 9.48166 15.7899 -18.3265 444.992 7.65135 -402.84
lowerback 8.0647 -1.04096 -6.22162
upperback 0.394796 -2.4836 -9.79577
thorax -4.32961 -1.21913 -6.56346
lowerneck -2.59746 1.13295 4.41174
upperneck -25.5685 0.116559 -6.8175
head -7.36198 0.297454 -3.03551
rclavicle -4.13472e-014 -4.29375e-014
rhumerus 79.9307 -31.9913 -43.5835
rradius 36.2331
rwrist -14.4217
rhand -27.8605 -45.1926
rfingers 7.12502
rthumb -1.25119 -75.1687
lclavicle -4.13472e-014 -4.29375e-014
lhumerus 73.7628 22.0684 64.4404
lradius 20.5248
lwrist 17.1181
lhand -46.3696 -21.2207
lfingers 7.12502
lthumb -19.1012 7.86131
rfemur -1.73226 -1.352 18.9545
rtibia 9.84998
rfoot 26.9265 -31.3666
rtoes 33.5746
lfemur -83.292 37.1342 8.62879
ltibia 58.7948
lfoot -30.6 -10.1256
ltoes 40.4307
427
root 9.48514 15.8162 -17.9679 445.915 9.69395 -404.131
lowerback 7.50547 -0.928491 -5.89928
upperback 0.325021 -2.22973 -9.57038
thorax -4.06964 -1.09966 -6.53245
lowerneck -2.87074 0.591804 3.62269
upperneck -26.038 -0.528081 -5.78572
head -7.52086 -0.0297824 -2.52911
rclavicle -4.77083e-014 -1.03368e-013
rhumerus 79.8084 -31.4791 -42.9242
rradius 36.3637
rwrist -13.3243
rhand -28.3325 -44.8547
rfingers 7.12502
rthumb -1.70704 -74.8276
lclavicle -4.77083e-014 -1.03368e-013
lhumerus 71.9147 21.1265 61.4123
lradius 22.0308
lwrist 17.4008
lhand -49.5352 -27.5217
lfingers 7.12502
lthumb -22.1429 1.23026
rfemur -0.0299505 -1.20801 18.4522
rtibia 10.2331
rfoot 26.6434 -32.2958
rtoes 34.8679
lfemur -80.6036 38.203 11.9422
ltibia 56.3204
lfoot -30.6528 -8.76436
ltoes 38.7646
428
root 9.48756 15.8577 -17.604 446.789 11.9532 -405.354
lowerback 6.89618 -0.988321 -5.36809
upperback 0.367763 -2.17132 -9.36891
thorax -3.6848 -1.07895 -6.62355
lowerneck -3.54823 0.296599 3.10789
upperneck -26.3116 -0.907929 -5.25465
head -7.51784 -0.210673 -2.24649
rclavicle 5.40694e-014 -5.40694e-014
rhumerus 80.0078 -31.163 -42.7968
rradius 36.5941
rwrist -11.8606
rhand -28.7352 -44.6358
rfingers 7.12502
rthumb -2.09593 -74.6053
lclavicle 5.40694e-014 -5.40694e-014
lhumerus 71.085 20.7232 59.3257
lradius 22.9601
lwrist 15.7868
lhand -52.0225 -31.0958
lfingers 7.12502
lthumb -24.5291 -2.64687
rfemur 1.6165 -1.14973 18.1478
rtibia 10.6267
rfoot 25.9824 -32.582
rtoes 33.8546
lfemur -77.4274 39.066 15.7789
ltibia 53.3419
lfoot -30.4738 -7.22272
ltoes 37.305
